<svg xmlns="http://www.w3.org/2000/svg" width="280" height="30" viewBox="0 0 280 30" fill="currentColor" ><path d="M0 9h58.417v3H0zm0 12h79.568v3H0zM61.439 9h3.022v3h-3.022zM82.59 21h3.022v3H82.59zM68.489 9h5.036v3h-5.036zm20.144 12h9.065v3h-9.065zm12.086 0h18.13v3h-18.13zm9.065-9h8.058v3h-8.058zm10.072 6h5.036v3h-5.036zm17.123 0h3.022v3h-3.022zm-12.087-3h3.022v3h-3.022zm6.043-3h3.022v3h-3.022zm-3.021 6h3.022v3h-3.022zm6.043-3h3.022v9h-3.022zm-3.022 9h3.022v3h-3.022zm-6.043-3h3.022v3h-3.022zm0 6h6.043v3h-6.043zm-3.021-3h3.022v3h-3.022zM76.547 9h15.108v3H76.547zm19.136 0h14.101v3H95.683zm22.159 0h14.101v3h-14.101zm20.144 0H140v3h-2.014zm0-9H140v3h-2.014zm-2.015 3h2.014v6h-2.014zM280 9h-58.417v3H280zm0 12h-79.568v3H280zM218.561 9h-3.022v3h3.022zM197.41 21h-3.022v3h3.022zm14.101-12h-5.036v3h5.036zm-20.144 12h-9.065v3h9.065zm-12.086 0h-18.13v3h18.13zm-9.065-9h-8.058v3h8.058zm-10.072 6h-5.036v3h5.036z"></path><path d="M143.021 18h-3.022v3h3.022zm12.087-3h-3.022v3h3.022zm-6.043-3h-3.022v3h3.022zm3.021 6h-3.022v3h3.022zm-6.043-3h-3.022v9h3.022zm3.022 9h-3.022v3h3.022zm6.043-3h-3.022v3h3.022zm0 6h-6.043v3h6.043zm3.021-3h-3.022v3h3.022zm45.324-15h-15.108v3h15.108zm-19.136 0h-14.101v3h14.101zm-22.159 0h-14.101v3h14.101zm-20.144 0H140v3h2.014zm0-9H140v3h2.014zm2.015 3h-2.014v6h2.014z"></path></svg>